<?xml version="1.0" standalone="no"?><!DOCTYPE svg PUBLIC "-//W3C//DTD SVG 1.1//EN" "http://www.w3.org/Graphics/SVG/1.1/DTD/svg11.dtd"><svg t="1607333671268" class="icon" viewBox="0 0 1024 1024" version="1.1" xmlns="http://www.w3.org/2000/svg" p-id="907" xmlns:xlink="http://www.w3.org/1999/xlink" width="200" height="200"><defs><style type="text/css"></style></defs><path d="M512 0c282.624 0 512 229.376 512 512s-229.376 512-512 512S0 794.624 0 512 229.376 0 512 0z m0 96.768c-55.296 0-110.592 10.752-161.792 32.768-49.152 20.992-94.208 51.2-132.096 89.088-37.376 37.376-67.584 82.432-88.576 131.584-21.504 51.2-32.768 105.984-32.768 161.792 0 56.32 10.752 110.592 32.768 161.792 20.992 49.152 51.2 94.208 89.088 132.096 37.888 37.888 82.432 68.096 132.096 89.088 51.2 21.504 105.984 32.768 161.792 32.768 55.296 0 110.592-10.752 161.792-32.768 49.152-20.992 94.208-51.2 132.096-89.088 37.888-37.888 68.096-82.432 89.088-132.096 21.504-51.2 32.768-105.984 32.768-161.792 0-55.296-10.752-110.592-32.768-161.792-20.992-49.152-51.2-94.208-89.088-132.096-37.888-37.888-82.432-68.096-132.096-89.088-51.712-20.992-107.008-32.256-162.304-32.256z m192 259.072c19.456-18.944 50.176-18.944 69.632 0 18.944 18.944 18.944 49.664 0 68.608l-270.848 269.824c-9.216 9.216-21.504 14.336-34.816 14.336-13.312 0-25.6-5.12-34.816-14.336l-156.16-155.136c-18.944-18.944-18.944-49.664 0-68.608 18.944-18.944 50.176-18.944 69.12 0l121.344 120.832 236.544-235.52z" fill="#67C23A" p-id="908"></path></svg>