<?xml version="1.0" standalone="no"?>
<!DOCTYPE svg PUBLIC "-//W3C//DTD SVG 1.1//EN"
        "http://www.w3.org/Graphics/SVG/1.1/DTD/svg11.dtd">
<svg t="1607333717921" class="icon" viewBox="0 0 1024 1024" version="1.1"
     xmlns="http://www.w3.org/2000/svg"
     p-id="1041" xmlns:xlink="http://www.w3.org/1999/xlink" width="200" height="200">
    <defs>
        <style type="text/css"></style>
    </defs>
    <path d="M512 0C229.376 0 0 229.376 0 512s229.376 512 512 512 512-229.376 512-512S794.624 0 512 0z m311.296 823.296c-40.448 40.448-87.552 72.192-139.776 94.208-54.272 23.04-111.616 34.816-171.008 34.816s-117.248-11.776-171.008-34.304c-52.224-22.016-99.328-53.76-139.776-94.208-40.448-40.448-72.192-87.552-94.208-139.776-23.04-54.272-34.816-112.128-34.816-171.52s11.776-117.248 34.304-171.008c22.016-52.224 53.76-99.328 94.208-139.776 40.448-40.448 87.552-72.192 139.776-94.208 54.272-23.04 112.128-34.816 171.52-34.816s117.248 11.776 171.008 34.304c52.224 22.016 99.328 53.76 139.776 94.208 40.448 40.448 72.192 87.552 94.208 139.776 23.04 54.272 34.816 112.128 34.816 171.52s-11.776 117.248-34.304 171.008c-22.528 52.224-54.272 99.328-94.72 139.776z m-26.624-275.456H227.328c-19.968 0-35.84-15.872-35.84-35.84s15.872-35.84 35.84-35.84h568.832c19.968 0 35.84 15.872 35.84 35.84 0.512 19.968-15.36 35.84-35.328 35.84z" fill="#F56C6C" p-id="1042"></path></svg>