<?xml version="1.0" standalone="no"?><!DOCTYPE svg PUBLIC "-//W3C//DTD SVG 1.1//EN" "http://www.w3.org/Graphics/SVG/1.1/DTD/svg11.dtd"><svg t="1608704672583" class="icon" viewBox="0 0 1024 1024" version="1.1" xmlns="http://www.w3.org/2000/svg" p-id="4816" xmlns:xlink="http://www.w3.org/1999/xlink" width="128" height="128"><defs><style type="text/css"></style></defs><path d="M870.4 133.12c11.264 0 20.48 9.216 20.48 20.48v716.8c0 11.264-9.216 20.48-20.48 20.48H153.6c-11.264 0-20.48-9.216-20.48-20.48V153.6c0-11.264 9.216-20.48 20.48-20.48h716.8m0-30.72H153.6c-28.672 0-51.2 22.528-51.2 51.2v716.8c0 28.672 22.528 51.2 51.2 51.2h716.8c28.672 0 51.2-22.528 51.2-51.2V153.6c0-28.672-22.528-51.2-51.2-51.2z" p-id="4817" fill="#62d505"></path><path d="M147.456 134.144L440.32 294.912v434.176L147.456 889.856c-8.192-3.072-14.336-10.24-14.336-19.456V153.6c0-9.216 6.144-17.408 14.336-19.456M153.6 102.4c-28.672 0-51.2 22.528-51.2 51.2v716.8c0 28.672 22.528 51.2 51.2 51.2l307.2-167.936c6.144-4.096 10.24-10.24 10.24-18.432V288.768c0-7.168-4.096-14.336-10.24-18.432L153.6 102.4zM876.544 134.144c8.192 3.072 14.336 10.24 14.336 19.456v716.8c0 9.216-6.144 17.408-14.336 19.456L583.68 729.088V294.912l292.864-160.768M870.4 102.4L563.2 270.336c-6.144 4.096-10.24 10.24-10.24 18.432v446.464c0 7.168 4.096 14.336 10.24 18.432L870.4 921.6c28.672 0 51.2-22.528 51.2-51.2V153.6c0-28.672-22.528-51.2-51.2-51.2z" p-id="4818" fill="#62d505"></path><path d="M363.52 450.56c-14.336 0-25.6 11.264-25.6 25.6v71.68c0 14.336 11.264 25.6 25.6 25.6s25.6-11.264 25.6-25.6v-71.68c0-14.336-11.264-25.6-25.6-25.6zM660.48 450.56c-14.336 0-25.6 11.264-25.6 25.6v71.68c0 14.336 11.264 25.6 25.6 25.6s25.6-11.264 25.6-25.6v-71.68c0-14.336-11.264-25.6-25.6-25.6z" p-id="4819" fill="#62d505"></path></svg>