<?xml version="1.0" standalone="no"?><!DOCTYPE svg PUBLIC "-//W3C//DTD SVG 1.1//EN" "http://www.w3.org/Graphics/SVG/1.1/DTD/svg11.dtd"><svg t="1608704599589" class="icon" viewBox="0 0 1024 1024" version="1.1" xmlns="http://www.w3.org/2000/svg" p-id="4220" width="128" height="128" xmlns:xlink="http://www.w3.org/1999/xlink"><defs><style type="text/css"></style></defs><path d="M870.4 133.12c11.264 0 20.48 9.216 20.48 20.48v716.8c0 11.264-9.216 20.48-20.48 20.48H153.6c-11.264 0-20.48-9.216-20.48-20.48V153.6c0-11.264 9.216-20.48 20.48-20.48h716.8m0-30.72H153.6c-28.672 0-51.2 22.528-51.2 51.2v716.8c0 28.672 22.528 51.2 51.2 51.2h716.8c28.672 0 51.2-22.528 51.2-51.2V153.6c0-28.672-22.528-51.2-51.2-51.2z" p-id="4221" fill="#62d505"></path><path d="M404.48 450.56c-14.336 0-25.6 11.264-25.6 25.6v71.68c0 14.336 11.264 25.6 25.6 25.6s25.6-11.264 25.6-25.6v-71.68c0-14.336-11.264-25.6-25.6-25.6zM619.52 450.56c-14.336 0-25.6 11.264-25.6 25.6v71.68c0 14.336 11.264 25.6 25.6 25.6s25.6-11.264 25.6-25.6v-71.68c0-14.336-11.264-25.6-25.6-25.6zM532.48 102.4h-40.96v819.2h40.96z" p-id="4222" fill="#62d505"></path></svg>